<?xml version="1.0" encoding="UTF-8" standalone="no"?>
<!DOCTYPE svg PUBLIC "-//W3C//DTD SVG 20010904//EN"
              "http://www.w3.org/TR/2001/REC-SVG-20010904/DTD/svg10.dtd">

<svg xmlns="http://www.w3.org/2000/svg"
     width="78.1475mm" height="128.101mm"
     viewBox="0 0 923 1513">
  <path id="Unnamed"
        fill="none" stroke="black" stroke-width="1"
        d="M 377.00,198.00
           C 377.00,198.00 391.00,271.00 391.00,271.00
             391.00,271.00 454.00,295.00 454.00,295.00
             454.00,295.00 520.00,286.00 520.00,286.00
             520.00,286.00 572.00,308.00 572.00,308.00
             572.00,308.00 586.00,360.00 586.00,360.00
             586.00,360.00 518.00,323.00 518.00,323.00
             518.00,323.00 443.00,334.00 443.00,334.00
             443.00,334.00 359.00,329.00 359.00,329.00
             359.00,329.00 420.00,467.00 420.00,467.00
             420.00,467.00 494.00,532.00 494.00,532.00
             494.00,532.00 490.00,779.00 490.00,779.00
             490.00,779.00 300.00,762.00 300.00,762.00
             300.00,762.00 156.00,886.00 156.00,886.00
             156.00,886.00 161.00,1001.00 161.00,1001.00
             161.00,1001.00 70.00,963.00 70.00,963.00
             70.00,963.00 3.00,523.00 3.00,523.00
             3.00,523.00 334.00,115.00 334.00,115.00
             334.00,115.00 350.00,155.00 350.00,155.00
             350.00,155.00 377.00,198.00 377.00,198.00 Z" />
</svg>
