<?xml version="1.0" encoding="UTF-8" standalone="no"?>
<!DOCTYPE svg PUBLIC "-//W3C//DTD SVG 20010904//EN"
              "http://www.w3.org/TR/2001/REC-SVG-20010904/DTD/svg10.dtd">

<svg xmlns="http://www.w3.org/2000/svg"
     width="78.1475mm" height="128.101mm"
     viewBox="0 0 923 1513">
  <path id="Unnamed"
        fill="none" stroke="black" stroke-width="1"
        d="M 374.50,199.00
           C 374.50,199.00 390.00,268.00 390.00,268.00
             390.00,268.00 453.00,293.00 453.00,293.00
             453.00,293.00 522.00,287.50 522.00,287.50
             522.00,287.50 572.50,310.50 572.50,310.50
             572.50,310.50 616.00,303.00 616.00,303.00
             616.00,303.00 642.00,282.00 642.00,282.00
             642.00,282.00 638.00,261.50 638.00,261.50
             638.00,261.50 650.50,227.50 650.50,227.50
             650.50,227.50 586.00,58.40 568.00,10.00
             564.85,1.54 567.00,3.00 567.00,3.00
             567.00,3.00 317.00,7.00 317.00,7.00
             317.00,7.00 339.50,137.50 339.50,137.50
             339.50,137.50 374.50,199.00 374.50,199.00 Z" />
</svg>
