<?xml version="1.0" encoding="UTF-8" standalone="no"?>
<!DOCTYPE svg PUBLIC "-//W3C//DTD SVG 20010904//EN"
              "http://www.w3.org/TR/2001/REC-SVG-20010904/DTD/svg10.dtd">

<svg xmlns="http://www.w3.org/2000/svg"
     width="78.1475mm" height="128.101mm"
     viewBox="0 0 923 1513">
  <path id="Unnamed"
        fill="none" stroke="black" stroke-width="1"
        d="M 420.00,464.00
           C 420.00,464.00 360.00,331.00 360.00,331.00
             360.00,331.00 458.00,333.00 458.00,333.00
             458.00,333.00 517.00,323.00 517.00,323.00
             517.00,323.00 584.00,357.00 584.00,357.00
             584.00,357.00 575.00,310.00 575.00,310.00
             575.00,310.00 617.00,303.00 617.00,303.00
             617.00,303.00 641.00,283.00 641.00,283.00
             641.00,283.00 639.00,262.00 639.00,262.00
             639.00,262.00 651.00,223.00 651.00,223.00
             651.00,223.00 641.00,204.00 641.00,204.00
             641.00,204.00 852.00,73.00 852.00,73.00
             852.00,73.00 918.00,410.00 918.00,410.00
             918.00,410.00 919.00,467.00 919.00,467.00
             919.00,467.00 846.00,1128.00 846.00,1128.00
             846.00,1128.00 436.00,1149.00 436.00,1149.00
             436.00,1149.00 221.00,1082.00 221.00,1082.00
             221.00,1082.00 163.00,1000.00 163.00,1000.00
             163.00,1000.00 157.00,882.00 157.00,882.00
             157.00,882.00 299.00,759.00 299.00,759.00
             299.00,759.00 489.00,778.00 489.00,778.00
             489.00,778.00 503.00,569.00 503.00,569.00
             503.00,569.00 420.00,464.00 420.00,464.00 Z" />
</svg>
